<mxfile host="app.diagrams.net" agent="Mozilla/5.0 (Macintosh; Intel Mac OS X 10_15_7) AppleWebKit/537.36 (KHTML, like Gecko) Chrome/134.0.0.0 Safari/537.36" version="26.1.1">
  <diagram name="페이지-1" id="6RXw1KbQg-WMk0Y0FaxJ">
    <mxGraphModel dx="3214" dy="1875" grid="1" gridSize="10" guides="1" tooltips="1" connect="1" arrows="1" fold="1" page="1" pageScale="1" pageWidth="827" pageHeight="1169" math="0" shadow="0">
      <root>
        <mxCell id="0" />
        <mxCell id="1" parent="0" />
        <mxCell id="gX61u7qebGhbOY5WnL8n-1" value="" style="rounded=1;whiteSpace=wrap;html=1;fillColor=#f8cecc;strokeColor=#b85450;" vertex="1" parent="1">
          <mxGeometry x="2240" y="385" width="290" height="335" as="geometry" />
        </mxCell>
        <mxCell id="gX61u7qebGhbOY5WnL8n-2" value="" style="rounded=1;whiteSpace=wrap;html=1;fillColor=#dae8fc;strokeColor=#6c8ebf;" vertex="1" parent="1">
          <mxGeometry x="50" y="95" width="570" height="245" as="geometry" />
        </mxCell>
        <mxCell id="gX61u7qebGhbOY5WnL8n-3" value="" style="rounded=1;whiteSpace=wrap;html=1;" vertex="1" parent="1">
          <mxGeometry x="70" y="110" width="250" height="200" as="geometry" />
        </mxCell>
        <mxCell id="gX61u7qebGhbOY5WnL8n-4" value="Trigger&amp;nbsp;&lt;div&gt;MA_FT_TEMP_LOG_TRIGGER&lt;/div&gt;&lt;div&gt;MA_AT_TEMP_LOG_TRIGGER&lt;/div&gt;" style="rounded=1;whiteSpace=wrap;html=1;" vertex="1" parent="1">
          <mxGeometry x="370" y="215" width="230" height="95" as="geometry" />
        </mxCell>
        <mxCell id="gX61u7qebGhbOY5WnL8n-5" value="&lt;h3&gt;&lt;span style=&quot;color: rgb(0, 0, 0); font-family: Helvetica; font-style: normal; font-variant-ligatures: normal; font-variant-caps: normal; font-weight: 400; letter-spacing: normal; orphans: 2; text-align: center; text-indent: 0px; text-transform: none; widows: 2; word-spacing: 0px; -webkit-text-stroke-width: 0px; white-space: normal; background-color: rgb(251, 251, 251); text-decoration-thickness: initial; text-decoration-style: initial; text-decoration-color: initial; float: none; display: inline !important;&quot;&gt;&lt;font style=&quot;font-size: 18px;&quot;&gt;Maria DB&lt;/font&gt;&lt;/span&gt;&lt;/h3&gt;" style="text;html=1;align=center;verticalAlign=middle;whiteSpace=wrap;rounded=0;" vertex="1" parent="1">
          <mxGeometry x="265" y="60" width="140" height="35" as="geometry" />
        </mxCell>
        <mxCell id="gX61u7qebGhbOY5WnL8n-6" value="&lt;br style=&quot;forced-color-adjust: none; color: rgb(0, 0, 0); font-family: Helvetica; font-size: 12px; font-style: normal; font-variant-ligatures: normal; font-variant-caps: normal; font-weight: 400; letter-spacing: normal; orphans: 2; text-align: center; text-indent: 0px; text-transform: none; widows: 2; word-spacing: 0px; -webkit-text-stroke-width: 0px; white-space: normal; background-color: rgb(251, 251, 251); text-decoration-thickness: initial; text-decoration-style: initial; text-decoration-color: initial;&quot;&gt;&lt;div style=&quot;forced-color-adjust: none; color: rgb(0, 0, 0); font-family: Helvetica; font-size: 12px; font-style: normal; font-variant-ligatures: normal; font-variant-caps: normal; font-weight: 400; letter-spacing: normal; orphans: 2; text-align: center; text-indent: 0px; text-transform: none; widows: 2; word-spacing: 0px; -webkit-text-stroke-width: 0px; white-space: normal; background-color: rgb(251, 251, 251); text-decoration-thickness: initial; text-decoration-style: initial; text-decoration-color: initial;&quot;&gt;imc.IMC_FT_BIZ_MSG_LOG&lt;/div&gt;&lt;div style=&quot;forced-color-adjust: none; color: rgb(0, 0, 0); font-family: Helvetica; font-size: 12px; font-style: normal; font-variant-ligatures: normal; font-variant-caps: normal; font-weight: 400; letter-spacing: normal; orphans: 2; text-align: center; text-indent: 0px; text-transform: none; widows: 2; word-spacing: 0px; -webkit-text-stroke-width: 0px; white-space: normal; background-color: rgb(251, 251, 251); text-decoration-thickness: initial; text-decoration-style: initial; text-decoration-color: initial;&quot;&gt;imc.IMC_AT_BIZ_MSG_LOG&lt;/div&gt;" style="rounded=1;whiteSpace=wrap;html=1;" vertex="1" parent="1">
          <mxGeometry x="90" y="220" width="210" height="60" as="geometry" />
        </mxCell>
        <mxCell id="gX61u7qebGhbOY5WnL8n-7" value="&lt;span style=&quot;color: rgb(0, 0, 0); font-family: Helvetica; font-size: 12px; font-style: normal; font-variant-ligatures: normal; font-variant-caps: normal; font-weight: 400; letter-spacing: normal; orphans: 2; text-align: center; text-indent: 0px; text-transform: none; widows: 2; word-spacing: 0px; -webkit-text-stroke-width: 0px; white-space: normal; background-color: rgb(251, 251, 251); text-decoration-thickness: initial; text-decoration-style: initial; text-decoration-color: initial; float: none; display: inline !important;&quot;&gt;imc.IMC_FT_BIZ_MSG&lt;/span&gt;&lt;div&gt;&lt;span style=&quot;color: rgb(0, 0, 0); font-family: Helvetica; font-size: 12px; font-style: normal; font-variant-ligatures: normal; font-variant-caps: normal; font-weight: 400; letter-spacing: normal; orphans: 2; text-align: center; text-indent: 0px; text-transform: none; widows: 2; word-spacing: 0px; -webkit-text-stroke-width: 0px; white-space: normal; background-color: rgb(251, 251, 251); text-decoration-thickness: initial; text-decoration-style: initial; text-decoration-color: initial; float: none; display: inline !important;&quot;&gt;imc.IMC_AT_BIZ_MSG&lt;/span&gt;&lt;/div&gt;" style="rounded=1;whiteSpace=wrap;html=1;" vertex="1" parent="1">
          <mxGeometry x="90" y="130" width="210" height="60" as="geometry" />
        </mxCell>
        <mxCell id="gX61u7qebGhbOY5WnL8n-8" value="" style="endArrow=classic;html=1;rounded=0;exitX=0.5;exitY=1;exitDx=0;exitDy=0;entryX=0.5;entryY=0;entryDx=0;entryDy=0;" edge="1" parent="1" source="gX61u7qebGhbOY5WnL8n-7" target="gX61u7qebGhbOY5WnL8n-6">
          <mxGeometry width="50" height="50" relative="1" as="geometry">
            <mxPoint x="400" y="340" as="sourcePoint" />
            <mxPoint x="450" y="290" as="targetPoint" />
          </mxGeometry>
        </mxCell>
        <mxCell id="gX61u7qebGhbOY5WnL8n-9" value="&lt;font style=&quot;font-size: 12px;&quot;&gt;IMC_AGENT&lt;/font&gt;" style="text;strokeColor=none;fillColor=none;html=1;fontSize=24;fontStyle=1;verticalAlign=middle;align=center;" vertex="1" parent="1">
          <mxGeometry x="145" y="100" width="100" height="30" as="geometry" />
        </mxCell>
        <mxCell id="gX61u7qebGhbOY5WnL8n-10" value="MA_FT_TEMP_LOG&lt;div&gt;MA_AT_TEMP_LOG&lt;/div&gt;" style="shape=cylinder3;whiteSpace=wrap;html=1;boundedLbl=1;backgroundOutline=1;size=15;" vertex="1" parent="1">
          <mxGeometry x="413" y="130" width="130" height="70" as="geometry" />
        </mxCell>
        <mxCell id="gX61u7qebGhbOY5WnL8n-11" value="" style="rounded=1;whiteSpace=wrap;html=1;fillColor=#fff2cc;strokeColor=#d6b656;" vertex="1" parent="1">
          <mxGeometry x="790" y="99" width="310" height="241" as="geometry" />
        </mxCell>
        <mxCell id="gX61u7qebGhbOY5WnL8n-12" value="&lt;font style=&quot;font-size: 18px;&quot;&gt;Logstash_5.1.2&lt;/font&gt;" style="text;html=1;align=center;verticalAlign=middle;whiteSpace=wrap;rounded=0;" vertex="1" parent="1">
          <mxGeometry x="875" y="60" width="140" height="35" as="geometry" />
        </mxCell>
        <mxCell id="gX61u7qebGhbOY5WnL8n-13" value="" style="endArrow=classic;html=1;rounded=0;exitX=1;exitY=0.5;exitDx=0;exitDy=0;entryX=-0.013;entryY=0.372;entryDx=0;entryDy=0;entryPerimeter=0;" edge="1" parent="1" source="gX61u7qebGhbOY5WnL8n-6" target="gX61u7qebGhbOY5WnL8n-4">
          <mxGeometry width="50" height="50" relative="1" as="geometry">
            <mxPoint x="700" y="300" as="sourcePoint" />
            <mxPoint x="750" y="250" as="targetPoint" />
          </mxGeometry>
        </mxCell>
        <mxCell id="gX61u7qebGhbOY5WnL8n-14" value="Produce to&amp;nbsp;&lt;div&gt;imc-send-ver5, imc-send-ver6&lt;/div&gt;" style="rounded=1;whiteSpace=wrap;html=1;" vertex="1" parent="1">
          <mxGeometry x="840" y="135" width="210" height="55" as="geometry" />
        </mxCell>
        <mxCell id="gX61u7qebGhbOY5WnL8n-15" value="" style="rounded=1;whiteSpace=wrap;html=1;fillColor=#f5f5f5;fontColor=#333333;strokeColor=#666666;" vertex="1" parent="1">
          <mxGeometry x="1260" y="100" width="310" height="245" as="geometry" />
        </mxCell>
        <mxCell id="gX61u7qebGhbOY5WnL8n-16" value="&lt;font style=&quot;font-size: 18px;&quot;&gt;Kafka(29,30,31)&lt;/font&gt;" style="text;html=1;align=center;verticalAlign=middle;whiteSpace=wrap;rounded=0;" vertex="1" parent="1">
          <mxGeometry x="1345" y="60" width="140" height="35" as="geometry" />
        </mxCell>
        <mxCell id="gX61u7qebGhbOY5WnL8n-17" value="imc-send-ver5" style="rounded=1;whiteSpace=wrap;html=1;" vertex="1" parent="1">
          <mxGeometry x="1310" y="129" width="210" height="65" as="geometry" />
        </mxCell>
        <mxCell id="gX61u7qebGhbOY5WnL8n-18" value="Topic" style="text;html=1;align=center;verticalAlign=middle;whiteSpace=wrap;rounded=0;" vertex="1" parent="1">
          <mxGeometry x="1385" y="105" width="60" height="30" as="geometry" />
        </mxCell>
        <mxCell id="gX61u7qebGhbOY5WnL8n-19" value="" style="endArrow=classic;html=1;rounded=0;exitX=1;exitY=0.5;exitDx=0;exitDy=0;exitPerimeter=0;" edge="1" parent="1" source="gX61u7qebGhbOY5WnL8n-10" target="gX61u7qebGhbOY5WnL8n-14">
          <mxGeometry width="50" height="50" relative="1" as="geometry">
            <mxPoint x="970" y="300" as="sourcePoint" />
            <mxPoint x="1020" y="250" as="targetPoint" />
          </mxGeometry>
        </mxCell>
        <mxCell id="gX61u7qebGhbOY5WnL8n-20" value="&lt;meta charset=&quot;utf-8&quot;&gt;&lt;span style=&quot;color: rgb(0, 0, 0); font-family: Helvetica; font-size: 12px; font-style: normal; font-variant-ligatures: normal; font-variant-caps: normal; font-weight: 400; letter-spacing: normal; orphans: 2; text-align: center; text-indent: 0px; text-transform: none; widows: 2; word-spacing: 0px; -webkit-text-stroke-width: 0px; white-space: normal; background-color: rgb(251, 251, 251); text-decoration-thickness: initial; text-decoration-style: initial; text-decoration-color: initial; display: inline !important; float: none;&quot;&gt;&amp;nbsp;schedule =&amp;gt; &quot;*/3 * * * *&quot;&lt;/span&gt;" style="text;strokeColor=none;fillColor=none;align=left;verticalAlign=middle;spacingLeft=4;spacingRight=4;overflow=hidden;points=[[0,0.5],[1,0.5]];portConstraint=eastwest;rotatable=0;whiteSpace=wrap;html=1;" vertex="1" parent="1">
          <mxGeometry x="630" y="135" width="160" height="35" as="geometry" />
        </mxCell>
        <mxCell id="gX61u7qebGhbOY5WnL8n-21" value="" style="endArrow=classic;html=1;rounded=0;exitX=1;exitY=0.5;exitDx=0;exitDy=0;exitPerimeter=0;entryX=0;entryY=0.5;entryDx=0;entryDy=0;" edge="1" parent="1" target="gX61u7qebGhbOY5WnL8n-17">
          <mxGeometry width="50" height="50" relative="1" as="geometry">
            <mxPoint x="1050" y="161" as="sourcePoint" />
            <mxPoint x="1347" y="159" as="targetPoint" />
          </mxGeometry>
        </mxCell>
        <mxCell id="gX61u7qebGhbOY5WnL8n-22" value="imc-send-ver6" style="rounded=1;whiteSpace=wrap;html=1;" vertex="1" parent="1">
          <mxGeometry x="1310" y="215" width="210" height="65" as="geometry" />
        </mxCell>
        <mxCell id="gX61u7qebGhbOY5WnL8n-23" value="" style="endArrow=classic;html=1;rounded=0;exitX=1;exitY=0.5;exitDx=0;exitDy=0;entryX=0;entryY=0.5;entryDx=0;entryDy=0;" edge="1" parent="1" source="gX61u7qebGhbOY5WnL8n-14" target="gX61u7qebGhbOY5WnL8n-22">
          <mxGeometry width="50" height="50" relative="1" as="geometry">
            <mxPoint x="1060" y="171" as="sourcePoint" />
            <mxPoint x="1320" y="172" as="targetPoint" />
          </mxGeometry>
        </mxCell>
        <mxCell id="gX61u7qebGhbOY5WnL8n-24" value="/app/logstash-5.1.2/humuson/imc-send.conf" style="text;html=1;align=center;verticalAlign=middle;whiteSpace=wrap;rounded=0;" vertex="1" parent="1">
          <mxGeometry x="780" y="194" width="310" height="30" as="geometry" />
        </mxCell>
        <mxCell id="gX61u7qebGhbOY5WnL8n-25" value="" style="rounded=1;whiteSpace=wrap;html=1;fillColor=#d5e8d4;strokeColor=#82b366;" vertex="1" parent="1">
          <mxGeometry x="1750" y="99" width="300" height="241" as="geometry" />
        </mxCell>
        <mxCell id="gX61u7qebGhbOY5WnL8n-26" value="imc-send-ver5 consumer&lt;div&gt;(Concurrency 20)&lt;/div&gt;" style="rounded=1;whiteSpace=wrap;html=1;" vertex="1" parent="1">
          <mxGeometry x="1800" y="149.5" width="210" height="65" as="geometry" />
        </mxCell>
        <mxCell id="gX61u7qebGhbOY5WnL8n-27" value="imc-send-ver6 consumer&lt;div&gt;(Concurrency 20)&lt;/div&gt;" style="rounded=1;whiteSpace=wrap;html=1;" vertex="1" parent="1">
          <mxGeometry x="1800" y="232" width="210" height="65" as="geometry" />
        </mxCell>
        <mxCell id="gX61u7qebGhbOY5WnL8n-28" value="&lt;font style=&quot;font-size: 18px;&quot;&gt;...&amp;nbsp;&lt;/font&gt;" style="text;html=1;align=center;verticalAlign=middle;whiteSpace=wrap;rounded=0;" vertex="1" parent="1">
          <mxGeometry x="1835" y="102.5" width="140" height="35" as="geometry" />
        </mxCell>
        <mxCell id="gX61u7qebGhbOY5WnL8n-29" value="" style="edgeStyle=segmentEdgeStyle;endArrow=classic;html=1;curved=0;rounded=0;endSize=8;startSize=8;entryX=0.5;entryY=1;entryDx=0;entryDy=0;exitX=0.5;exitY=1;exitDx=0;exitDy=0;" edge="1" parent="1" source="gX61u7qebGhbOY5WnL8n-27" target="gX61u7qebGhbOY5WnL8n-4">
          <mxGeometry width="50" height="50" relative="1" as="geometry">
            <mxPoint x="1689.4117647058824" y="420" as="sourcePoint" />
            <mxPoint x="450" y="320" as="targetPoint" />
            <Array as="points">
              <mxPoint x="1905" y="420" />
              <mxPoint x="485" y="420" />
            </Array>
          </mxGeometry>
        </mxCell>
        <mxCell id="gX61u7qebGhbOY5WnL8n-30" value="&lt;font style=&quot;font-size: 14px;&quot;&gt;DELETE data&lt;/font&gt;" style="text;html=1;align=center;verticalAlign=middle;whiteSpace=wrap;rounded=0;" vertex="1" parent="1">
          <mxGeometry x="415" y="370" width="140" height="30" as="geometry" />
        </mxCell>
        <mxCell id="gX61u7qebGhbOY5WnL8n-31" value="" style="endArrow=classic;html=1;rounded=0;exitX=1;exitY=0.5;exitDx=0;exitDy=0;exitPerimeter=0;entryX=0;entryY=0.5;entryDx=0;entryDy=0;" edge="1" parent="1" target="gX61u7qebGhbOY5WnL8n-26">
          <mxGeometry width="50" height="50" relative="1" as="geometry">
            <mxPoint x="1520" y="159.41" as="sourcePoint" />
            <mxPoint x="1780" y="160.41" as="targetPoint" />
          </mxGeometry>
        </mxCell>
        <mxCell id="gX61u7qebGhbOY5WnL8n-32" value="" style="endArrow=classic;html=1;rounded=0;exitX=1;exitY=0.5;exitDx=0;exitDy=0;exitPerimeter=0;entryX=0;entryY=0.5;entryDx=0;entryDy=0;" edge="1" parent="1" target="gX61u7qebGhbOY5WnL8n-27">
          <mxGeometry width="50" height="50" relative="1" as="geometry">
            <mxPoint x="1520" y="246.91" as="sourcePoint" />
            <mxPoint x="1780" y="247.91" as="targetPoint" />
          </mxGeometry>
        </mxCell>
        <mxCell id="gX61u7qebGhbOY5WnL8n-33" value="&lt;span style=&quot;color: rgb(0, 0, 0); font-family: Helvetica; font-style: normal; font-variant-ligatures: normal; font-variant-caps: normal; font-weight: 400; letter-spacing: normal; orphans: 2; text-align: center; text-indent: 0px; text-transform: none; widows: 2; word-spacing: 0px; -webkit-text-stroke-width: 0px; white-space: normal; background-color: rgb(251, 251, 251); text-decoration-thickness: initial; text-decoration-style: initial; text-decoration-color: initial; float: none; display: inline !important;&quot;&gt;&lt;font style=&quot;font-size: 10px;&quot;&gt;processImcSned(String message)&amp;nbsp;&lt;/font&gt;&lt;/span&gt;" style="text;html=1;align=center;verticalAlign=middle;whiteSpace=wrap;rounded=0;" vertex="1" parent="1">
          <mxGeometry x="1560" y="140" width="210" height="30" as="geometry" />
        </mxCell>
        <mxCell id="gX61u7qebGhbOY5WnL8n-34" value="&lt;span style=&quot;color: rgb(0, 0, 0); font-family: Helvetica; font-style: normal; font-variant-ligatures: normal; font-variant-caps: normal; font-weight: 400; letter-spacing: normal; orphans: 2; text-align: center; text-indent: 0px; text-transform: none; widows: 2; word-spacing: 0px; -webkit-text-stroke-width: 0px; white-space: normal; background-color: rgb(251, 251, 251); text-decoration-thickness: initial; text-decoration-style: initial; text-decoration-color: initial; float: none; display: inline !important;&quot;&gt;&lt;font style=&quot;font-size: 10px;&quot;&gt;processImcSned(String message)&amp;nbsp;&lt;/font&gt;&lt;/span&gt;" style="text;html=1;align=center;verticalAlign=middle;whiteSpace=wrap;rounded=0;" vertex="1" parent="1">
          <mxGeometry x="1560" y="224" width="210" height="30" as="geometry" />
        </mxCell>
        <mxCell id="gX61u7qebGhbOY5WnL8n-35" value="&lt;h3&gt;&lt;span style=&quot;color: rgb(0, 0, 0); font-family: Helvetica; font-style: normal; font-variant-ligatures: normal; font-variant-caps: normal; font-weight: 400; letter-spacing: normal; orphans: 2; text-align: center; text-indent: 0px; text-transform: none; widows: 2; word-spacing: 0px; -webkit-text-stroke-width: 0px; white-space: normal; background-color: rgb(251, 251, 251); text-decoration-thickness: initial; text-decoration-style: initial; text-decoration-color: initial; float: none; display: inline !important;&quot;&gt;&lt;font style=&quot;font-size: 18px;&quot;&gt;Maria DB&lt;/font&gt;&lt;/span&gt;&lt;/h3&gt;" style="text;html=1;align=center;verticalAlign=middle;whiteSpace=wrap;rounded=0;" vertex="1" parent="1">
          <mxGeometry x="2310" y="64" width="140" height="35" as="geometry" />
        </mxCell>
        <mxCell id="gX61u7qebGhbOY5WnL8n-36" value="" style="rounded=1;whiteSpace=wrap;html=1;fillColor=#dae8fc;strokeColor=#6c8ebf;" vertex="1" parent="1">
          <mxGeometry x="2240" y="97" width="290" height="245" as="geometry" />
        </mxCell>
        <mxCell id="gX61u7qebGhbOY5WnL8n-37" value="PROGRMA_MA_SCHD&lt;div&gt;PROGRMA_MA_SCHD_CHANNEL&lt;/div&gt;&lt;div&gt;PROGRAM_MA_TARGET_LIST&lt;/div&gt;" style="shape=cylinder3;whiteSpace=wrap;html=1;boundedLbl=1;backgroundOutline=1;size=15;" vertex="1" parent="1">
          <mxGeometry x="2281" y="137.5" width="200" height="130" as="geometry" />
        </mxCell>
        <mxCell id="gX61u7qebGhbOY5WnL8n-38" value="&lt;font&gt;전송 실패 건에 대해서 프리퀀시 감소 로직 처리&amp;nbsp;&lt;/font&gt;" style="text;html=1;align=center;verticalAlign=middle;whiteSpace=wrap;rounded=0;" vertex="1" parent="1">
          <mxGeometry x="1976.25" y="460" width="290" height="30" as="geometry" />
        </mxCell>
        <mxCell id="gX61u7qebGhbOY5WnL8n-39" value="" style="rounded=1;whiteSpace=wrap;html=1;fillColor=#dae8fc;strokeColor=#6c8ebf;" vertex="1" parent="1">
          <mxGeometry x="50" y="95" width="570" height="245" as="geometry" />
        </mxCell>
        <mxCell id="gX61u7qebGhbOY5WnL8n-40" value="" style="rounded=1;whiteSpace=wrap;html=1;" vertex="1" parent="1">
          <mxGeometry x="70" y="110" width="250" height="200" as="geometry" />
        </mxCell>
        <mxCell id="gX61u7qebGhbOY5WnL8n-41" value="Trigger&amp;nbsp;&lt;div&gt;MA_FT_TEMP_LOG_TRIGGER&lt;/div&gt;&lt;div&gt;MA_AT_TEMP_LOG_TRIGGER&lt;/div&gt;" style="rounded=1;whiteSpace=wrap;html=1;" vertex="1" parent="1">
          <mxGeometry x="370" y="215" width="230" height="95" as="geometry" />
        </mxCell>
        <mxCell id="gX61u7qebGhbOY5WnL8n-42" value="&lt;h3&gt;&lt;span style=&quot;color: rgb(0, 0, 0); font-family: Helvetica; font-style: normal; font-variant-ligatures: normal; font-variant-caps: normal; font-weight: 400; letter-spacing: normal; orphans: 2; text-align: center; text-indent: 0px; text-transform: none; widows: 2; word-spacing: 0px; -webkit-text-stroke-width: 0px; white-space: normal; background-color: rgb(251, 251, 251); text-decoration-thickness: initial; text-decoration-style: initial; text-decoration-color: initial; float: none; display: inline !important;&quot;&gt;&lt;font style=&quot;font-size: 18px;&quot;&gt;Maria DB(49)&lt;/font&gt;&lt;/span&gt;&lt;/h3&gt;" style="text;html=1;align=center;verticalAlign=middle;whiteSpace=wrap;rounded=0;" vertex="1" parent="1">
          <mxGeometry x="265" y="60" width="140" height="35" as="geometry" />
        </mxCell>
        <mxCell id="gX61u7qebGhbOY5WnL8n-43" value="&lt;br style=&quot;forced-color-adjust: none; color: rgb(0, 0, 0); font-family: Helvetica; font-size: 12px; font-style: normal; font-variant-ligatures: normal; font-variant-caps: normal; font-weight: 400; letter-spacing: normal; orphans: 2; text-align: center; text-indent: 0px; text-transform: none; widows: 2; word-spacing: 0px; -webkit-text-stroke-width: 0px; white-space: normal; background-color: rgb(251, 251, 251); text-decoration-thickness: initial; text-decoration-style: initial; text-decoration-color: initial;&quot;&gt;&lt;div style=&quot;forced-color-adjust: none; color: rgb(0, 0, 0); font-family: Helvetica; font-size: 12px; font-style: normal; font-variant-ligatures: normal; font-variant-caps: normal; font-weight: 400; letter-spacing: normal; orphans: 2; text-align: center; text-indent: 0px; text-transform: none; widows: 2; word-spacing: 0px; -webkit-text-stroke-width: 0px; white-space: normal; background-color: rgb(251, 251, 251); text-decoration-thickness: initial; text-decoration-style: initial; text-decoration-color: initial;&quot;&gt;imc.IMC_FT_BIZ_MSG_LOG&lt;/div&gt;&lt;div style=&quot;forced-color-adjust: none; color: rgb(0, 0, 0); font-family: Helvetica; font-size: 12px; font-style: normal; font-variant-ligatures: normal; font-variant-caps: normal; font-weight: 400; letter-spacing: normal; orphans: 2; text-align: center; text-indent: 0px; text-transform: none; widows: 2; word-spacing: 0px; -webkit-text-stroke-width: 0px; white-space: normal; background-color: rgb(251, 251, 251); text-decoration-thickness: initial; text-decoration-style: initial; text-decoration-color: initial;&quot;&gt;imc.IMC_AT_BIZ_MSG_LOG&lt;/div&gt;" style="rounded=1;whiteSpace=wrap;html=1;" vertex="1" parent="1">
          <mxGeometry x="90" y="220" width="210" height="60" as="geometry" />
        </mxCell>
        <mxCell id="gX61u7qebGhbOY5WnL8n-44" value="&lt;span style=&quot;color: rgb(0, 0, 0); font-family: Helvetica; font-size: 12px; font-style: normal; font-variant-ligatures: normal; font-variant-caps: normal; font-weight: 400; letter-spacing: normal; orphans: 2; text-align: center; text-indent: 0px; text-transform: none; widows: 2; word-spacing: 0px; -webkit-text-stroke-width: 0px; white-space: normal; background-color: rgb(251, 251, 251); text-decoration-thickness: initial; text-decoration-style: initial; text-decoration-color: initial; float: none; display: inline !important;&quot;&gt;imc.IMC_FT_BIZ_MSG&lt;/span&gt;&lt;div&gt;&lt;span style=&quot;color: rgb(0, 0, 0); font-family: Helvetica; font-size: 12px; font-style: normal; font-variant-ligatures: normal; font-variant-caps: normal; font-weight: 400; letter-spacing: normal; orphans: 2; text-align: center; text-indent: 0px; text-transform: none; widows: 2; word-spacing: 0px; -webkit-text-stroke-width: 0px; white-space: normal; background-color: rgb(251, 251, 251); text-decoration-thickness: initial; text-decoration-style: initial; text-decoration-color: initial; float: none; display: inline !important;&quot;&gt;imc.IMC_AT_BIZ_MSG&lt;/span&gt;&lt;/div&gt;" style="rounded=1;whiteSpace=wrap;html=1;" vertex="1" parent="1">
          <mxGeometry x="90" y="130" width="210" height="60" as="geometry" />
        </mxCell>
        <mxCell id="gX61u7qebGhbOY5WnL8n-45" value="" style="endArrow=classic;html=1;rounded=0;exitX=0.5;exitY=1;exitDx=0;exitDy=0;entryX=0.5;entryY=0;entryDx=0;entryDy=0;" edge="1" parent="1" source="gX61u7qebGhbOY5WnL8n-44" target="gX61u7qebGhbOY5WnL8n-43">
          <mxGeometry width="50" height="50" relative="1" as="geometry">
            <mxPoint x="400" y="340" as="sourcePoint" />
            <mxPoint x="450" y="290" as="targetPoint" />
          </mxGeometry>
        </mxCell>
        <mxCell id="gX61u7qebGhbOY5WnL8n-46" value="&lt;font style=&quot;font-size: 12px;&quot;&gt;IMC_AGENT&lt;/font&gt;" style="text;strokeColor=none;fillColor=none;html=1;fontSize=24;fontStyle=1;verticalAlign=middle;align=center;" vertex="1" parent="1">
          <mxGeometry x="145" y="100" width="100" height="30" as="geometry" />
        </mxCell>
        <mxCell id="gX61u7qebGhbOY5WnL8n-47" value="MA_FT_TEMP_LOG&lt;div&gt;MA_AT_TEMP_LOG&lt;/div&gt;" style="shape=cylinder3;whiteSpace=wrap;html=1;boundedLbl=1;backgroundOutline=1;size=15;" vertex="1" parent="1">
          <mxGeometry x="413" y="130" width="130" height="70" as="geometry" />
        </mxCell>
        <mxCell id="gX61u7qebGhbOY5WnL8n-48" value="" style="rounded=1;whiteSpace=wrap;html=1;fillColor=#fff2cc;strokeColor=#d6b656;" vertex="1" parent="1">
          <mxGeometry x="790" y="99" width="310" height="241" as="geometry" />
        </mxCell>
        <mxCell id="gX61u7qebGhbOY5WnL8n-49" value="&lt;font style=&quot;font-size: 18px;&quot;&gt;Logstash_5.1.2&lt;/font&gt;" style="text;html=1;align=center;verticalAlign=middle;whiteSpace=wrap;rounded=0;" vertex="1" parent="1">
          <mxGeometry x="875" y="60" width="140" height="35" as="geometry" />
        </mxCell>
        <mxCell id="gX61u7qebGhbOY5WnL8n-50" value="" style="endArrow=classic;html=1;rounded=0;exitX=1;exitY=0.5;exitDx=0;exitDy=0;entryX=-0.013;entryY=0.372;entryDx=0;entryDy=0;entryPerimeter=0;" edge="1" parent="1" source="gX61u7qebGhbOY5WnL8n-43" target="gX61u7qebGhbOY5WnL8n-41">
          <mxGeometry width="50" height="50" relative="1" as="geometry">
            <mxPoint x="700" y="300" as="sourcePoint" />
            <mxPoint x="750" y="250" as="targetPoint" />
          </mxGeometry>
        </mxCell>
        <mxCell id="gX61u7qebGhbOY5WnL8n-51" value="Produce to&amp;nbsp;&lt;div&gt;imc-send-ver5, imc-send-ver6&lt;/div&gt;" style="rounded=1;whiteSpace=wrap;html=1;" vertex="1" parent="1">
          <mxGeometry x="840" y="135" width="210" height="55" as="geometry" />
        </mxCell>
        <mxCell id="gX61u7qebGhbOY5WnL8n-52" value="" style="rounded=1;whiteSpace=wrap;html=1;fillColor=#f5f5f5;fontColor=#333333;strokeColor=#666666;" vertex="1" parent="1">
          <mxGeometry x="1260" y="100" width="310" height="245" as="geometry" />
        </mxCell>
        <mxCell id="gX61u7qebGhbOY5WnL8n-53" value="&lt;font style=&quot;font-size: 18px;&quot;&gt;Kafka(29,30,31)&lt;/font&gt;" style="text;html=1;align=center;verticalAlign=middle;whiteSpace=wrap;rounded=0;" vertex="1" parent="1">
          <mxGeometry x="1345" y="60" width="140" height="35" as="geometry" />
        </mxCell>
        <mxCell id="gX61u7qebGhbOY5WnL8n-54" value="imweb_orders" style="rounded=1;whiteSpace=wrap;html=1;" vertex="1" parent="1">
          <mxGeometry x="1310" y="129" width="210" height="65" as="geometry" />
        </mxCell>
        <mxCell id="gX61u7qebGhbOY5WnL8n-55" value="Topic" style="text;html=1;align=center;verticalAlign=middle;whiteSpace=wrap;rounded=0;" vertex="1" parent="1">
          <mxGeometry x="1385" y="105" width="60" height="30" as="geometry" />
        </mxCell>
        <mxCell id="gX61u7qebGhbOY5WnL8n-56" value="" style="endArrow=classic;html=1;rounded=0;exitX=1;exitY=0.5;exitDx=0;exitDy=0;exitPerimeter=0;" edge="1" parent="1" source="gX61u7qebGhbOY5WnL8n-47" target="gX61u7qebGhbOY5WnL8n-51">
          <mxGeometry width="50" height="50" relative="1" as="geometry">
            <mxPoint x="970" y="300" as="sourcePoint" />
            <mxPoint x="1020" y="250" as="targetPoint" />
          </mxGeometry>
        </mxCell>
        <mxCell id="gX61u7qebGhbOY5WnL8n-57" value="&lt;meta charset=&quot;utf-8&quot;&gt;&lt;span style=&quot;color: rgb(0, 0, 0); font-family: Helvetica; font-size: 12px; font-style: normal; font-variant-ligatures: normal; font-variant-caps: normal; font-weight: 400; letter-spacing: normal; orphans: 2; text-align: center; text-indent: 0px; text-transform: none; widows: 2; word-spacing: 0px; -webkit-text-stroke-width: 0px; white-space: normal; background-color: rgb(251, 251, 251); text-decoration-thickness: initial; text-decoration-style: initial; text-decoration-color: initial; display: inline !important; float: none;&quot;&gt;&amp;nbsp;schedule =&amp;gt; &quot;*/3 * * * *&quot;&lt;/span&gt;" style="text;strokeColor=none;fillColor=none;align=left;verticalAlign=middle;spacingLeft=4;spacingRight=4;overflow=hidden;points=[[0,0.5],[1,0.5]];portConstraint=eastwest;rotatable=0;whiteSpace=wrap;html=1;" vertex="1" parent="1">
          <mxGeometry x="630" y="135" width="160" height="35" as="geometry" />
        </mxCell>
        <mxCell id="gX61u7qebGhbOY5WnL8n-58" value="" style="endArrow=classic;html=1;rounded=0;exitX=1;exitY=0.5;exitDx=0;exitDy=0;exitPerimeter=0;entryX=0;entryY=0.5;entryDx=0;entryDy=0;" edge="1" parent="1" target="gX61u7qebGhbOY5WnL8n-54">
          <mxGeometry width="50" height="50" relative="1" as="geometry">
            <mxPoint x="1050" y="161" as="sourcePoint" />
            <mxPoint x="1347" y="159" as="targetPoint" />
          </mxGeometry>
        </mxCell>
        <mxCell id="gX61u7qebGhbOY5WnL8n-59" value="imweb_members" style="rounded=1;whiteSpace=wrap;html=1;" vertex="1" parent="1">
          <mxGeometry x="1310" y="215" width="210" height="65" as="geometry" />
        </mxCell>
        <mxCell id="gX61u7qebGhbOY5WnL8n-60" value="" style="endArrow=classic;html=1;rounded=0;exitX=1;exitY=0.5;exitDx=0;exitDy=0;entryX=0;entryY=0.5;entryDx=0;entryDy=0;" edge="1" parent="1" source="gX61u7qebGhbOY5WnL8n-51" target="gX61u7qebGhbOY5WnL8n-59">
          <mxGeometry width="50" height="50" relative="1" as="geometry">
            <mxPoint x="1060" y="171" as="sourcePoint" />
            <mxPoint x="1320" y="172" as="targetPoint" />
          </mxGeometry>
        </mxCell>
        <mxCell id="gX61u7qebGhbOY5WnL8n-61" value="/app/logstash-5.1.2/humuson/imc-send.conf" style="text;html=1;align=center;verticalAlign=middle;whiteSpace=wrap;rounded=0;" vertex="1" parent="1">
          <mxGeometry x="780" y="194" width="310" height="30" as="geometry" />
        </mxCell>
        <mxCell id="gX61u7qebGhbOY5WnL8n-62" value="&lt;font style=&quot;font-size: 18px;&quot;&gt;crm-trk(202)&lt;/font&gt;" style="text;html=1;align=center;verticalAlign=middle;whiteSpace=wrap;rounded=0;" vertex="1" parent="1">
          <mxGeometry x="1836.25" y="60" width="140" height="35" as="geometry" />
        </mxCell>
        <mxCell id="gX61u7qebGhbOY5WnL8n-63" value="" style="rounded=1;whiteSpace=wrap;html=1;fillColor=#d5e8d4;strokeColor=#82b366;" vertex="1" parent="1">
          <mxGeometry x="1750" y="99" width="300" height="241" as="geometry" />
        </mxCell>
        <mxCell id="gX61u7qebGhbOY5WnL8n-64" value="imc-send-ver5 consumer&lt;div&gt;(Concurrency 20)&lt;/div&gt;" style="rounded=1;whiteSpace=wrap;html=1;" vertex="1" parent="1">
          <mxGeometry x="1800" y="149.5" width="210" height="65" as="geometry" />
        </mxCell>
        <mxCell id="gX61u7qebGhbOY5WnL8n-65" value="" style="edgeStyle=segmentEdgeStyle;endArrow=classic;html=1;curved=0;rounded=0;endSize=8;startSize=8;entryX=0.5;entryY=1;entryDx=0;entryDy=0;exitX=0.5;exitY=1;exitDx=0;exitDy=0;" edge="1" parent="1" source="gX61u7qebGhbOY5WnL8n-64" target="gX61u7qebGhbOY5WnL8n-41">
          <mxGeometry width="50" height="50" relative="1" as="geometry">
            <mxPoint x="1689.4117647058824" y="420" as="sourcePoint" />
            <mxPoint x="450" y="320" as="targetPoint" />
            <Array as="points">
              <mxPoint x="1905" y="420" />
              <mxPoint x="485" y="420" />
            </Array>
          </mxGeometry>
        </mxCell>
        <mxCell id="gX61u7qebGhbOY5WnL8n-66" value="&lt;font style=&quot;font-size: 18px;&quot;&gt;...&amp;nbsp;&lt;/font&gt;" style="text;html=1;align=center;verticalAlign=middle;whiteSpace=wrap;rounded=0;" vertex="1" parent="1">
          <mxGeometry x="1835" y="102.5" width="140" height="35" as="geometry" />
        </mxCell>
        <mxCell id="gX61u7qebGhbOY5WnL8n-67" value="&lt;font style=&quot;font-size: 14px;&quot;&gt;DELETE data&lt;/font&gt;" style="text;html=1;align=center;verticalAlign=middle;whiteSpace=wrap;rounded=0;" vertex="1" parent="1">
          <mxGeometry x="415" y="370" width="140" height="30" as="geometry" />
        </mxCell>
        <mxCell id="gX61u7qebGhbOY5WnL8n-68" value="" style="endArrow=classic;html=1;rounded=0;exitX=1;exitY=0.5;exitDx=0;exitDy=0;exitPerimeter=0;entryX=0;entryY=0.5;entryDx=0;entryDy=0;" edge="1" parent="1" target="gX61u7qebGhbOY5WnL8n-64">
          <mxGeometry width="50" height="50" relative="1" as="geometry">
            <mxPoint x="1520" y="159.41" as="sourcePoint" />
            <mxPoint x="1780" y="160.41" as="targetPoint" />
          </mxGeometry>
        </mxCell>
        <mxCell id="gX61u7qebGhbOY5WnL8n-69" value="" style="endArrow=classic;html=1;rounded=0;exitX=1;exitY=0.5;exitDx=0;exitDy=0;exitPerimeter=0;entryX=0;entryY=0.5;entryDx=0;entryDy=0;" edge="1" parent="1" target="gX61u7qebGhbOY5WnL8n-127">
          <mxGeometry width="50" height="50" relative="1" as="geometry">
            <mxPoint x="1520" y="246.91" as="sourcePoint" />
            <mxPoint x="1780" y="247.91" as="targetPoint" />
          </mxGeometry>
        </mxCell>
        <mxCell id="gX61u7qebGhbOY5WnL8n-70" value="&lt;span style=&quot;color: rgb(0, 0, 0); font-family: Helvetica; font-style: normal; font-variant-ligatures: normal; font-variant-caps: normal; font-weight: 400; letter-spacing: normal; orphans: 2; text-align: center; text-indent: 0px; text-transform: none; widows: 2; word-spacing: 0px; -webkit-text-stroke-width: 0px; white-space: normal; background-color: rgb(251, 251, 251); text-decoration-thickness: initial; text-decoration-style: initial; text-decoration-color: initial; float: none; display: inline !important;&quot;&gt;&lt;font style=&quot;font-size: 10px;&quot;&gt;processImcFtSend(String message)&amp;nbsp;&lt;/font&gt;&lt;/span&gt;" style="text;html=1;align=center;verticalAlign=middle;whiteSpace=wrap;rounded=0;" vertex="1" parent="1">
          <mxGeometry x="1560" y="140" width="210" height="30" as="geometry" />
        </mxCell>
        <mxCell id="gX61u7qebGhbOY5WnL8n-71" value="&lt;span style=&quot;color: rgb(0, 0, 0); font-family: Helvetica; font-style: normal; font-variant-ligatures: normal; font-variant-caps: normal; font-weight: 400; letter-spacing: normal; orphans: 2; text-align: center; text-indent: 0px; text-transform: none; widows: 2; word-spacing: 0px; -webkit-text-stroke-width: 0px; white-space: normal; background-color: rgb(251, 251, 251); text-decoration-thickness: initial; text-decoration-style: initial; text-decoration-color: initial; float: none; display: inline !important;&quot;&gt;&lt;font style=&quot;font-size: 10px;&quot;&gt;processImcAtSend(String message)&amp;nbsp;&lt;/font&gt;&lt;/span&gt;" style="text;html=1;align=center;verticalAlign=middle;whiteSpace=wrap;rounded=0;" vertex="1" parent="1">
          <mxGeometry x="1560" y="224" width="210" height="30" as="geometry" />
        </mxCell>
        <mxCell id="gX61u7qebGhbOY5WnL8n-72" value="&lt;h3&gt;&lt;span style=&quot;color: rgb(0, 0, 0); font-family: Helvetica; font-style: normal; font-variant-ligatures: normal; font-variant-caps: normal; font-weight: 400; letter-spacing: normal; orphans: 2; text-align: center; text-indent: 0px; text-transform: none; widows: 2; word-spacing: 0px; -webkit-text-stroke-width: 0px; white-space: normal; background-color: rgb(251, 251, 251); text-decoration-thickness: initial; text-decoration-style: initial; text-decoration-color: initial; float: none; display: inline !important;&quot;&gt;&lt;font style=&quot;font-size: 18px;&quot;&gt;Maria DB(49)&lt;/font&gt;&lt;/span&gt;&lt;/h3&gt;" style="text;html=1;align=center;verticalAlign=middle;whiteSpace=wrap;rounded=0;" vertex="1" parent="1">
          <mxGeometry x="2310" y="64" width="140" height="35" as="geometry" />
        </mxCell>
        <mxCell id="gX61u7qebGhbOY5WnL8n-73" value="" style="rounded=1;whiteSpace=wrap;html=1;fillColor=#dae8fc;strokeColor=#6c8ebf;" vertex="1" parent="1">
          <mxGeometry x="2240" y="97" width="290" height="245" as="geometry" />
        </mxCell>
        <mxCell id="gX61u7qebGhbOY5WnL8n-74" value="PROGRMA_MA_SCHD&lt;div&gt;PROGRMA_MA_SCHD_CHANNEL&lt;/div&gt;&lt;div&gt;PROGRAM_MA_TARGET_LIST&lt;/div&gt;" style="shape=cylinder3;whiteSpace=wrap;html=1;boundedLbl=1;backgroundOutline=1;size=15;" vertex="1" parent="1">
          <mxGeometry x="2281" y="149.5" width="200" height="130" as="geometry" />
        </mxCell>
        <mxCell id="gX61u7qebGhbOY5WnL8n-75" value="" style="endArrow=classic;html=1;rounded=0;exitX=1;exitY=0.5;exitDx=0;exitDy=0;entryX=0;entryY=0.5;entryDx=0;entryDy=0;entryPerimeter=0;" edge="1" parent="1" source="gX61u7qebGhbOY5WnL8n-64" target="gX61u7qebGhbOY5WnL8n-74">
          <mxGeometry width="50" height="50" relative="1" as="geometry">
            <mxPoint x="2009.0000000000005" y="174" as="sourcePoint" />
            <mxPoint x="2289.0000000000005" y="182.01999999999998" as="targetPoint" />
          </mxGeometry>
        </mxCell>
        <mxCell id="gX61u7qebGhbOY5WnL8n-76" value="" style="endArrow=classic;html=1;rounded=0;exitX=1;exitY=0.5;exitDx=0;exitDy=0;entryX=0;entryY=0.5;entryDx=0;entryDy=0;entryPerimeter=0;" edge="1" parent="1" target="gX61u7qebGhbOY5WnL8n-74">
          <mxGeometry width="50" height="50" relative="1" as="geometry">
            <mxPoint x="2010.0000000000005" y="264.75" as="sourcePoint" />
            <mxPoint x="2291" y="213.25" as="targetPoint" />
          </mxGeometry>
        </mxCell>
        <mxCell id="gX61u7qebGhbOY5WnL8n-77" value="UPDATE&amp;nbsp;&lt;div&gt;INSERT&lt;/div&gt;" style="text;html=1;align=center;verticalAlign=middle;whiteSpace=wrap;rounded=0;" vertex="1" parent="1">
          <mxGeometry x="2110" y="204.5" width="120" height="26" as="geometry" />
        </mxCell>
        <mxCell id="gX61u7qebGhbOY5WnL8n-78" value="&lt;h3&gt;&lt;span style=&quot;font-size: 18px; font-weight: 400;&quot;&gt;Redis(TMA 14)&lt;/span&gt;&lt;/h3&gt;" style="text;html=1;align=center;verticalAlign=middle;whiteSpace=wrap;rounded=0;" vertex="1" parent="1">
          <mxGeometry x="2310" y="350" width="140" height="35" as="geometry" />
        </mxCell>
        <mxCell id="gX61u7qebGhbOY5WnL8n-79" value="&lt;div&gt;frequency:&lt;span style=&quot;background-color: transparent; color: light-dark(rgb(0, 0, 0), rgb(255, 255, 255));&quot;&gt;{siteSeq}:{date}:{userid}&lt;/span&gt;&lt;/div&gt;&lt;div&gt;frequency_log:{siteSeq}:{date}:{userid}&lt;/div&gt;&lt;div&gt;&lt;br&gt;&lt;/div&gt;" style="shape=cylinder3;whiteSpace=wrap;html=1;boundedLbl=1;backgroundOutline=1;size=15;" vertex="1" parent="1">
          <mxGeometry x="2280.25" y="420" width="209.5" height="130" as="geometry" />
        </mxCell>
        <mxCell id="gX61u7qebGhbOY5WnL8n-80" value="" style="endArrow=classic;html=1;rounded=0;exitX=1;exitY=0.5;exitDx=0;exitDy=0;entryX=0;entryY=0.5;entryDx=0;entryDy=0;" edge="1" parent="1" source="gX61u7qebGhbOY5WnL8n-64" target="gX61u7qebGhbOY5WnL8n-1">
          <mxGeometry width="50" height="50" relative="1" as="geometry">
            <mxPoint x="2020" y="192" as="sourcePoint" />
            <mxPoint x="2291" y="213" as="targetPoint" />
          </mxGeometry>
        </mxCell>
        <mxCell id="gX61u7qebGhbOY5WnL8n-81" value="" style="rounded=1;whiteSpace=wrap;html=1;fillColor=#f5f5f5;fontColor=#333333;strokeColor=#666666;" vertex="1" parent="1">
          <mxGeometry x="1230" y="928" width="340" height="241" as="geometry" />
        </mxCell>
        <mxCell id="gX61u7qebGhbOY5WnL8n-82" value="" style="rounded=1;whiteSpace=wrap;html=1;" vertex="1" parent="1">
          <mxGeometry x="810" y="944" width="250" height="185" as="geometry" />
        </mxCell>
        <mxCell id="gX61u7qebGhbOY5WnL8n-83" value="" style="rounded=1;whiteSpace=wrap;html=1;fillColor=#dae8fc;strokeColor=#6c8ebf;" vertex="1" parent="1">
          <mxGeometry x="290" y="924" width="320" height="245" as="geometry" />
        </mxCell>
        <mxCell id="gX61u7qebGhbOY5WnL8n-85" value="IMWEB" style="text;html=1;align=center;verticalAlign=middle;whiteSpace=wrap;rounded=0;" vertex="1" parent="1">
          <mxGeometry x="380" y="887" width="140" height="35" as="geometry" />
        </mxCell>
        <mxCell id="gX61u7qebGhbOY5WnL8n-86" value="&lt;br style=&quot;forced-color-adjust: none; color: rgb(0, 0, 0); font-family: Helvetica; font-size: 12px; font-style: normal; font-variant-ligatures: normal; font-variant-caps: normal; font-weight: 400; letter-spacing: normal; orphans: 2; text-align: center; text-indent: 0px; text-transform: none; widows: 2; word-spacing: 0px; -webkit-text-stroke-width: 0px; white-space: normal; background-color: rgb(251, 251, 251); text-decoration-thickness: initial; text-decoration-style: initial; text-decoration-color: initial;&quot;&gt;&lt;div style=&quot;forced-color-adjust: none; color: rgb(0, 0, 0); font-family: Helvetica; font-size: 12px; font-style: normal; font-variant-ligatures: normal; font-variant-caps: normal; font-weight: 400; letter-spacing: normal; orphans: 2; text-align: center; text-indent: 0px; text-transform: none; widows: 2; word-spacing: 0px; -webkit-text-stroke-width: 0px; white-space: normal; background-color: rgb(251, 251, 251); text-decoration-thickness: initial; text-decoration-style: initial; text-decoration-color: initial;&quot;&gt;imc.IMC_FT_BIZ_MSG_LOG&lt;/div&gt;&lt;div style=&quot;forced-color-adjust: none; color: rgb(0, 0, 0); font-family: Helvetica; font-size: 12px; font-style: normal; font-variant-ligatures: normal; font-variant-caps: normal; font-weight: 400; letter-spacing: normal; orphans: 2; text-align: center; text-indent: 0px; text-transform: none; widows: 2; word-spacing: 0px; -webkit-text-stroke-width: 0px; white-space: normal; background-color: rgb(251, 251, 251); text-decoration-thickness: initial; text-decoration-style: initial; text-decoration-color: initial;&quot;&gt;imc.IMC_AT_BIZ_MSG_LOG&lt;/div&gt;" style="rounded=1;whiteSpace=wrap;html=1;" vertex="1" parent="1">
          <mxGeometry x="350" y="1054" width="210" height="60" as="geometry" />
        </mxCell>
        <mxCell id="gX61u7qebGhbOY5WnL8n-87" value="&lt;span style=&quot;color: rgb(0, 0, 0); font-family: Helvetica; font-size: 12px; font-style: normal; font-variant-ligatures: normal; font-variant-caps: normal; font-weight: 400; letter-spacing: normal; orphans: 2; text-align: center; text-indent: 0px; text-transform: none; widows: 2; word-spacing: 0px; -webkit-text-stroke-width: 0px; white-space: normal; background-color: rgb(251, 251, 251); text-decoration-thickness: initial; text-decoration-style: initial; text-decoration-color: initial; float: none; display: inline !important;&quot;&gt;imc.IMC_FT_BIZ_MSG&lt;/span&gt;&lt;div&gt;&lt;span style=&quot;color: rgb(0, 0, 0); font-family: Helvetica; font-size: 12px; font-style: normal; font-variant-ligatures: normal; font-variant-caps: normal; font-weight: 400; letter-spacing: normal; orphans: 2; text-align: center; text-indent: 0px; text-transform: none; widows: 2; word-spacing: 0px; -webkit-text-stroke-width: 0px; white-space: normal; background-color: rgb(251, 251, 251); text-decoration-thickness: initial; text-decoration-style: initial; text-decoration-color: initial; float: none; display: inline !important;&quot;&gt;imc.IMC_AT_BIZ_MSG&lt;/span&gt;&lt;/div&gt;" style="rounded=1;whiteSpace=wrap;html=1;" vertex="1" parent="1">
          <mxGeometry x="350" y="964" width="210" height="60" as="geometry" />
        </mxCell>
        <mxCell id="gX61u7qebGhbOY5WnL8n-91" value="&lt;h1 style=&quot;margin: 0px; padding: 0px; box-sizing: border-box; display: flex; align-items: center; justify-content: flex-start; font-size: var(--ui-fontSizes-300); line-height: 1.5; flex-grow: 1; color: rgb(236, 238, 236); font-weight: var(--ui-fontWeights-bold); font-family: Geist, -apple-system, &amp;quot;system-ui&amp;quot;, &amp;quot;San Francisco&amp;quot;, &amp;quot;Segoe UI&amp;quot;, Roboto, &amp;quot;Helvetica Neue&amp;quot;, sans-serif; text-align: start; background-color: rgb(23, 24, 22);&quot; class=&quot;ui-c-gqwkJN ui-c-iEkvVg&quot;&gt;&lt;span style=&quot;color: rgb(0, 0, 0); font-family: Helvetica; text-align: center; background-color: rgb(251, 251, 251);&quot;&gt;order-flow&lt;/span&gt;&lt;/h1&gt;" style="rounded=1;whiteSpace=wrap;html=1;" vertex="1" parent="1">
          <mxGeometry x="830" y="964" width="210" height="55" as="geometry" />
        </mxCell>
        <mxCell id="gX61u7qebGhbOY5WnL8n-92" value="&lt;font style=&quot;font-size: 18px;&quot;&gt;Kafka(29,30,31)&lt;/font&gt;" style="text;html=1;align=center;verticalAlign=middle;whiteSpace=wrap;rounded=0;" vertex="1" parent="1">
          <mxGeometry x="1335" y="889" width="140" height="35" as="geometry" />
        </mxCell>
        <mxCell id="gX61u7qebGhbOY5WnL8n-93" value="imweb_orders" style="rounded=1;whiteSpace=wrap;html=1;" vertex="1" parent="1">
          <mxGeometry x="1300" y="958" width="210" height="65" as="geometry" />
        </mxCell>
        <mxCell id="gX61u7qebGhbOY5WnL8n-94" value="Topic" style="text;html=1;align=center;verticalAlign=middle;whiteSpace=wrap;rounded=0;" vertex="1" parent="1">
          <mxGeometry x="1375" y="934" width="60" height="30" as="geometry" />
        </mxCell>
        <mxCell id="gX61u7qebGhbOY5WnL8n-95" value="" style="endArrow=classic;html=1;rounded=0;exitX=1;exitY=0.5;exitDx=0;exitDy=0;entryX=0;entryY=0.5;entryDx=0;entryDy=0;" edge="1" parent="1" source="gX61u7qebGhbOY5WnL8n-87" target="gX61u7qebGhbOY5WnL8n-91">
          <mxGeometry width="50" height="50" relative="1" as="geometry">
            <mxPoint x="533" y="994" as="sourcePoint" />
            <mxPoint x="1010" y="1079" as="targetPoint" />
          </mxGeometry>
        </mxCell>
        <mxCell id="gX61u7qebGhbOY5WnL8n-96" value="" style="endArrow=classic;html=1;rounded=0;exitX=1;exitY=0.5;exitDx=0;exitDy=0;exitPerimeter=0;entryX=0;entryY=0.5;entryDx=0;entryDy=0;" edge="1" parent="1" target="gX61u7qebGhbOY5WnL8n-93">
          <mxGeometry width="50" height="50" relative="1" as="geometry">
            <mxPoint x="1040" y="990" as="sourcePoint" />
            <mxPoint x="1337" y="988" as="targetPoint" />
          </mxGeometry>
        </mxCell>
        <mxCell id="gX61u7qebGhbOY5WnL8n-97" value="imweb_members" style="rounded=1;whiteSpace=wrap;html=1;" vertex="1" parent="1">
          <mxGeometry x="1300" y="1035.5" width="210" height="65" as="geometry" />
        </mxCell>
        <mxCell id="gX61u7qebGhbOY5WnL8n-98" value="" style="endArrow=classic;html=1;rounded=0;exitX=1;exitY=0.5;exitDx=0;exitDy=0;entryX=0;entryY=0.5;entryDx=0;entryDy=0;" edge="1" parent="1" source="gX61u7qebGhbOY5WnL8n-113" target="gX61u7qebGhbOY5WnL8n-97">
          <mxGeometry width="50" height="50" relative="1" as="geometry">
            <mxPoint x="1050" y="1000" as="sourcePoint" />
            <mxPoint x="1310" y="1001" as="targetPoint" />
          </mxGeometry>
        </mxCell>
        <mxCell id="gX61u7qebGhbOY5WnL8n-99" value="" style="rounded=1;whiteSpace=wrap;html=1;fillColor=#d5e8d4;strokeColor=#82b366;" vertex="1" parent="1">
          <mxGeometry x="1740" y="928" width="300" height="802" as="geometry" />
        </mxCell>
        <mxCell id="gX61u7qebGhbOY5WnL8n-100" value="&lt;font style=&quot;font-size: 18px;&quot;&gt;tma-crm-trk(117)&lt;/font&gt;" style="text;html=1;align=center;verticalAlign=middle;whiteSpace=wrap;rounded=0;" vertex="1" parent="1">
          <mxGeometry x="1825" y="889" width="140" height="35" as="geometry" />
        </mxCell>
        <mxCell id="gX61u7qebGhbOY5WnL8n-101" value="imc.IMC_FT_BIZ_MSG_LOG&amp;nbsp;&lt;div&gt;consumer&lt;span style=&quot;background-color: transparent; color: light-dark(rgb(0, 0, 0), rgb(255, 255, 255));&quot;&gt;(Concurrency 20)&lt;/span&gt;&lt;/div&gt;" style="rounded=1;whiteSpace=wrap;html=1;" vertex="1" parent="1">
          <mxGeometry x="1790" y="956.5" width="210" height="65" as="geometry" />
        </mxCell>
        <mxCell id="gX61u7qebGhbOY5WnL8n-102" value="imc.IMC_AT_BIZ_MSG_LOG&amp;nbsp;&lt;div&gt;consumer&amp;nbsp;&lt;span style=&quot;background-color: transparent; color: light-dark(rgb(0, 0, 0), rgb(255, 255, 255));&quot;&gt;(Concurrency 20)&lt;/span&gt;&lt;/div&gt;" style="rounded=1;whiteSpace=wrap;html=1;" vertex="1" parent="1">
          <mxGeometry x="1790" y="1046" width="210" height="65" as="geometry" />
        </mxCell>
        <mxCell id="gX61u7qebGhbOY5WnL8n-103" value="" style="endArrow=classic;html=1;rounded=0;exitX=1;exitY=0.5;exitDx=0;exitDy=0;exitPerimeter=0;entryX=0;entryY=0.5;entryDx=0;entryDy=0;" edge="1" parent="1" target="gX61u7qebGhbOY5WnL8n-101">
          <mxGeometry width="50" height="50" relative="1" as="geometry">
            <mxPoint x="1510" y="988.41" as="sourcePoint" />
            <mxPoint x="1770" y="989.41" as="targetPoint" />
          </mxGeometry>
        </mxCell>
        <mxCell id="gX61u7qebGhbOY5WnL8n-104" value="" style="endArrow=classic;html=1;rounded=0;exitX=1;exitY=0.5;exitDx=0;exitDy=0;exitPerimeter=0;entryX=0;entryY=0.5;entryDx=0;entryDy=0;" edge="1" parent="1" target="gX61u7qebGhbOY5WnL8n-102">
          <mxGeometry width="50" height="50" relative="1" as="geometry">
            <mxPoint x="1510" y="1075.9099999999999" as="sourcePoint" />
            <mxPoint x="1770" y="1076.9099999999999" as="targetPoint" />
          </mxGeometry>
        </mxCell>
        <mxCell id="gX61u7qebGhbOY5WnL8n-105" value="&lt;span style=&quot;color: rgb(0, 0, 0); font-family: Helvetica; font-style: normal; font-variant-ligatures: normal; font-variant-caps: normal; font-weight: 400; letter-spacing: normal; orphans: 2; text-align: center; text-indent: 0px; text-transform: none; widows: 2; word-spacing: 0px; -webkit-text-stroke-width: 0px; white-space: normal; background-color: rgb(251, 251, 251); text-decoration-thickness: initial; text-decoration-style: initial; text-decoration-color: initial; float: none; display: inline !important;&quot;&gt;&lt;font style=&quot;font-size: 10px;&quot;&gt;processImcFtSend(List&amp;lt;String&amp;gt; message)&lt;/font&gt;&lt;/span&gt;&lt;div&gt;&lt;span style=&quot;color: rgb(0, 0, 0); font-family: Helvetica; font-style: normal; font-variant-ligatures: normal; font-variant-caps: normal; font-weight: 400; letter-spacing: normal; orphans: 2; text-align: center; text-indent: 0px; text-transform: none; widows: 2; word-spacing: 0px; -webkit-text-stroke-width: 0px; white-space: normal; background-color: rgb(251, 251, 251); text-decoration-thickness: initial; text-decoration-style: initial; text-decoration-color: initial; float: none; display: inline !important;&quot;&gt;&lt;font style=&quot;font-size: 10px;&quot;&gt;Poll 500 messages&amp;nbsp;&lt;/font&gt;&lt;/span&gt;&lt;/div&gt;" style="text;html=1;align=center;verticalAlign=middle;whiteSpace=wrap;rounded=0;" vertex="1" parent="1">
          <mxGeometry x="1550" y="969" width="210" height="30" as="geometry" />
        </mxCell>
        <mxCell id="gX61u7qebGhbOY5WnL8n-106" value="&lt;span style=&quot;color: rgb(0, 0, 0); font-family: Helvetica; font-style: normal; font-variant-ligatures: normal; font-variant-caps: normal; font-weight: 400; letter-spacing: normal; orphans: 2; text-align: center; text-indent: 0px; text-transform: none; widows: 2; word-spacing: 0px; -webkit-text-stroke-width: 0px; white-space: normal; background-color: rgb(251, 251, 251); text-decoration-thickness: initial; text-decoration-style: initial; text-decoration-color: initial; float: none; display: inline !important;&quot;&gt;&lt;font style=&quot;font-size: 10px;&quot;&gt;processImcAtSend(List&amp;lt;String&amp;gt; message)&lt;br&gt;&lt;/font&gt;&lt;/span&gt;&lt;div&gt;&lt;span style=&quot;color: rgb(0, 0, 0); font-family: Helvetica; font-style: normal; font-variant-ligatures: normal; font-variant-caps: normal; font-weight: 400; letter-spacing: normal; orphans: 2; text-align: center; text-indent: 0px; text-transform: none; widows: 2; word-spacing: 0px; -webkit-text-stroke-width: 0px; white-space: normal; background-color: rgb(251, 251, 251); text-decoration-thickness: initial; text-decoration-style: initial; text-decoration-color: initial; float: none; display: inline !important;&quot;&gt;&lt;font style=&quot;font-size: 10px;&quot;&gt;&lt;span style=&quot;background-color: transparent; color: light-dark(rgb(0, 0, 0), rgb(255, 255, 255));&quot;&gt;Poll 500 messages&lt;/span&gt;&amp;nbsp;&lt;/font&gt;&lt;/span&gt;&lt;/div&gt;" style="text;html=1;align=center;verticalAlign=middle;whiteSpace=wrap;rounded=0;" vertex="1" parent="1">
          <mxGeometry x="1550" y="1053" width="210" height="30" as="geometry" />
        </mxCell>
        <mxCell id="gX61u7qebGhbOY5WnL8n-113" value="members-flow" style="rounded=1;whiteSpace=wrap;html=1;" vertex="1" parent="1">
          <mxGeometry x="830" y="1040.5" width="210" height="55" as="geometry" />
        </mxCell>
        <mxCell id="gX61u7qebGhbOY5WnL8n-114" value="" style="endArrow=classic;html=1;rounded=0;exitX=1;exitY=0.5;exitDx=0;exitDy=0;entryX=0;entryY=0.5;entryDx=0;entryDy=0;" edge="1" parent="1" source="gX61u7qebGhbOY5WnL8n-86" target="gX61u7qebGhbOY5WnL8n-113">
          <mxGeometry width="50" height="50" relative="1" as="geometry">
            <mxPoint x="300" y="1089" as="sourcePoint" />
            <mxPoint x="840" y="1016" as="targetPoint" />
          </mxGeometry>
        </mxCell>
        <mxCell id="gX61u7qebGhbOY5WnL8n-115" value="Dagster" style="text;html=1;align=center;verticalAlign=middle;whiteSpace=wrap;rounded=0;" vertex="1" parent="1">
          <mxGeometry x="875" y="900" width="115" height="52" as="geometry" />
        </mxCell>
        <mxCell id="gX61u7qebGhbOY5WnL8n-117" value="&lt;font style=&quot;font-size: 24px;&quot;&gt;&lt;b&gt;AS-IS&lt;/b&gt;&lt;/font&gt;" style="text;html=1;align=center;verticalAlign=middle;whiteSpace=wrap;rounded=0;" vertex="1" parent="1">
          <mxGeometry x="90" y="34" width="120" height="30" as="geometry" />
        </mxCell>
        <mxCell id="gX61u7qebGhbOY5WnL8n-118" value="&lt;font style=&quot;font-size: 24px;&quot;&gt;&lt;b&gt;TO-BE&lt;/b&gt;&lt;/font&gt;" style="text;html=1;align=center;verticalAlign=middle;whiteSpace=wrap;rounded=0;" vertex="1" parent="1">
          <mxGeometry x="90" y="857" width="120" height="30" as="geometry" />
        </mxCell>
        <mxCell id="gX61u7qebGhbOY5WnL8n-119" value="&lt;div&gt;mt:{siteSeq}:{userId}&lt;/div&gt;&lt;div&gt;&lt;br&gt;&lt;/div&gt;" style="shape=cylinder3;whiteSpace=wrap;html=1;boundedLbl=1;backgroundOutline=1;size=15;" vertex="1" parent="1">
          <mxGeometry x="2281" y="570" width="209.5" height="130" as="geometry" />
        </mxCell>
        <mxCell id="gX61u7qebGhbOY5WnL8n-120" value="&lt;font&gt;전송 성공건에 대해서 전환 매출을 수집하기 위해 Redis에 1일 동안 적재&amp;nbsp;&lt;/font&gt;" style="text;html=1;align=center;verticalAlign=middle;whiteSpace=wrap;rounded=0;" vertex="1" parent="1">
          <mxGeometry x="2010" y="610" width="220" height="30" as="geometry" />
        </mxCell>
        <mxCell id="gX61u7qebGhbOY5WnL8n-127" value="imc-send-ver6 consumer&lt;div&gt;(Concurrency 20)&lt;/div&gt;" style="rounded=1;whiteSpace=wrap;html=1;" vertex="1" parent="1">
          <mxGeometry x="1800" y="232" width="210" height="65" as="geometry" />
        </mxCell>
        <mxCell id="gX61u7qebGhbOY5WnL8n-173" value="&lt;font style=&quot;font-size: 18px;&quot;&gt;tma-trk(202)&lt;/font&gt;" style="text;html=1;align=center;verticalAlign=middle;whiteSpace=wrap;rounded=0;" vertex="1" parent="1">
          <mxGeometry x="2981.25" y="887" width="140" height="35" as="geometry" />
        </mxCell>
        <mxCell id="gX61u7qebGhbOY5WnL8n-174" value="" style="rounded=1;whiteSpace=wrap;html=1;fillColor=#d5e8d4;strokeColor=#82b366;" vertex="1" parent="1">
          <mxGeometry x="2895" y="926" width="300" height="802" as="geometry" />
        </mxCell>
        <mxCell id="gX61u7qebGhbOY5WnL8n-175" value="imc-send-ver5 consumer&lt;div&gt;(Concurrency 20)&lt;/div&gt;" style="rounded=1;whiteSpace=wrap;html=1;" vertex="1" parent="1">
          <mxGeometry x="2945" y="976.5" width="210" height="65" as="geometry" />
        </mxCell>
        <mxCell id="gX61u7qebGhbOY5WnL8n-176" value="imc-send-ver6 consumer&lt;div&gt;(Concurrency 20)&lt;/div&gt;" style="rounded=1;whiteSpace=wrap;html=1;" vertex="1" parent="1">
          <mxGeometry x="2945" y="1059" width="210" height="65" as="geometry" />
        </mxCell>
        <mxCell id="gX61u7qebGhbOY5WnL8n-177" value="" style="rounded=1;whiteSpace=wrap;html=1;fillColor=#f5f5f5;fontColor=#333333;strokeColor=#666666;" vertex="1" parent="1">
          <mxGeometry x="2281" y="928" width="340" height="241" as="geometry" />
        </mxCell>
        <mxCell id="gX61u7qebGhbOY5WnL8n-178" value="&lt;font style=&quot;font-size: 18px;&quot;&gt;Kafka(29,30,31)&lt;/font&gt;" style="text;html=1;align=center;verticalAlign=middle;whiteSpace=wrap;rounded=0;" vertex="1" parent="1">
          <mxGeometry x="2386" y="889" width="140" height="35" as="geometry" />
        </mxCell>
        <mxCell id="gX61u7qebGhbOY5WnL8n-179" value="imweb_orders" style="rounded=1;whiteSpace=wrap;html=1;" vertex="1" parent="1">
          <mxGeometry x="2351" y="958" width="210" height="65" as="geometry" />
        </mxCell>
        <mxCell id="gX61u7qebGhbOY5WnL8n-180" value="Topic" style="text;html=1;align=center;verticalAlign=middle;whiteSpace=wrap;rounded=0;" vertex="1" parent="1">
          <mxGeometry x="2426" y="934" width="60" height="30" as="geometry" />
        </mxCell>
        <mxCell id="gX61u7qebGhbOY5WnL8n-181" value="imweb_members" style="rounded=1;whiteSpace=wrap;html=1;" vertex="1" parent="1">
          <mxGeometry x="2351" y="1035.5" width="210" height="65" as="geometry" />
        </mxCell>
        <mxCell id="gX61u7qebGhbOY5WnL8n-186" value="" style="rounded=1;whiteSpace=wrap;html=1;fillColor=#f8cecc;strokeColor=#b85450;" vertex="1" parent="1">
          <mxGeometry x="3520" y="1210" width="290" height="335" as="geometry" />
        </mxCell>
        <mxCell id="gX61u7qebGhbOY5WnL8n-187" value="&lt;h3&gt;&lt;span style=&quot;color: rgb(0, 0, 0); font-family: Helvetica; font-style: normal; font-variant-ligatures: normal; font-variant-caps: normal; font-weight: 400; letter-spacing: normal; orphans: 2; text-align: center; text-indent: 0px; text-transform: none; widows: 2; word-spacing: 0px; -webkit-text-stroke-width: 0px; white-space: normal; background-color: rgb(251, 251, 251); text-decoration-thickness: initial; text-decoration-style: initial; text-decoration-color: initial; float: none; display: inline !important;&quot;&gt;&lt;font style=&quot;font-size: 18px;&quot;&gt;Maria DB&lt;/font&gt;&lt;/span&gt;&lt;/h3&gt;" style="text;html=1;align=center;verticalAlign=middle;whiteSpace=wrap;rounded=0;" vertex="1" parent="1">
          <mxGeometry x="3590" y="889" width="140" height="35" as="geometry" />
        </mxCell>
        <mxCell id="gX61u7qebGhbOY5WnL8n-188" value="" style="rounded=1;whiteSpace=wrap;html=1;fillColor=#dae8fc;strokeColor=#6c8ebf;" vertex="1" parent="1">
          <mxGeometry x="3520" y="922" width="290" height="245" as="geometry" />
        </mxCell>
        <mxCell id="gX61u7qebGhbOY5WnL8n-189" value="PROGRMA_MA_SCHD&lt;div&gt;PROGRMA_MA_SCHD_CHANNEL&lt;/div&gt;&lt;div&gt;PROGRAM_MA_TARGET_LIST&lt;/div&gt;" style="shape=cylinder3;whiteSpace=wrap;html=1;boundedLbl=1;backgroundOutline=1;size=15;" vertex="1" parent="1">
          <mxGeometry x="3561" y="962.5" width="200" height="130" as="geometry" />
        </mxCell>
        <mxCell id="gX61u7qebGhbOY5WnL8n-190" value="&lt;h3&gt;&lt;span style=&quot;color: rgb(0, 0, 0); font-family: Helvetica; font-style: normal; font-variant-ligatures: normal; font-variant-caps: normal; font-weight: 400; letter-spacing: normal; orphans: 2; text-align: center; text-indent: 0px; text-transform: none; widows: 2; word-spacing: 0px; -webkit-text-stroke-width: 0px; white-space: normal; background-color: rgb(251, 251, 251); text-decoration-thickness: initial; text-decoration-style: initial; text-decoration-color: initial; float: none; display: inline !important;&quot;&gt;&lt;font style=&quot;font-size: 18px;&quot;&gt;Maria DB(49)&lt;/font&gt;&lt;/span&gt;&lt;/h3&gt;" style="text;html=1;align=center;verticalAlign=middle;whiteSpace=wrap;rounded=0;" vertex="1" parent="1">
          <mxGeometry x="3590" y="889" width="140" height="35" as="geometry" />
        </mxCell>
        <mxCell id="gX61u7qebGhbOY5WnL8n-191" value="" style="rounded=1;whiteSpace=wrap;html=1;fillColor=#dae8fc;strokeColor=#6c8ebf;" vertex="1" parent="1">
          <mxGeometry x="3520" y="922" width="290" height="245" as="geometry" />
        </mxCell>
        <mxCell id="gX61u7qebGhbOY5WnL8n-192" value="PROGRMA_MA_SCHD&lt;div&gt;PROGRMA_MA_SCHD_CHANNEL&lt;/div&gt;&lt;div&gt;PROGRAM_MA_TARGET_LIST&lt;/div&gt;" style="shape=cylinder3;whiteSpace=wrap;html=1;boundedLbl=1;backgroundOutline=1;size=15;" vertex="1" parent="1">
          <mxGeometry x="3561" y="974.5" width="200" height="130" as="geometry" />
        </mxCell>
        <mxCell id="gX61u7qebGhbOY5WnL8n-193" value="UPDATE&amp;nbsp;&lt;div&gt;INSERT&lt;/div&gt;" style="text;html=1;align=center;verticalAlign=middle;whiteSpace=wrap;rounded=0;" vertex="1" parent="1">
          <mxGeometry x="3390" y="1029.5" width="120" height="26" as="geometry" />
        </mxCell>
        <mxCell id="gX61u7qebGhbOY5WnL8n-194" value="&lt;h3&gt;&lt;span style=&quot;font-size: 18px; font-weight: 400;&quot;&gt;Redis(TMA 14)&lt;/span&gt;&lt;/h3&gt;" style="text;html=1;align=center;verticalAlign=middle;whiteSpace=wrap;rounded=0;" vertex="1" parent="1">
          <mxGeometry x="3590" y="1175" width="140" height="35" as="geometry" />
        </mxCell>
        <mxCell id="gX61u7qebGhbOY5WnL8n-195" value="&lt;div&gt;frequency:&lt;span style=&quot;background-color: transparent; color: light-dark(rgb(0, 0, 0), rgb(255, 255, 255));&quot;&gt;{siteSeq}:{date}:{userid}&lt;/span&gt;&lt;/div&gt;&lt;div&gt;frequency_log:{siteSeq}:{date}:{userid}&lt;/div&gt;&lt;div&gt;&lt;br&gt;&lt;/div&gt;" style="shape=cylinder3;whiteSpace=wrap;html=1;boundedLbl=1;backgroundOutline=1;size=15;" vertex="1" parent="1">
          <mxGeometry x="3560.25" y="1245" width="209.5" height="130" as="geometry" />
        </mxCell>
        <mxCell id="gX61u7qebGhbOY5WnL8n-196" value="" style="endArrow=classic;html=1;rounded=0;exitX=1;exitY=0.5;exitDx=0;exitDy=0;entryX=0;entryY=0.5;entryDx=0;entryDy=0;" edge="1" parent="1" target="gX61u7qebGhbOY5WnL8n-186">
          <mxGeometry width="50" height="50" relative="1" as="geometry">
            <mxPoint x="3290" y="1007" as="sourcePoint" />
            <mxPoint x="3571" y="1038" as="targetPoint" />
          </mxGeometry>
        </mxCell>
        <mxCell id="gX61u7qebGhbOY5WnL8n-197" value="&lt;div&gt;mt:{siteSeq}:{userId}&lt;/div&gt;&lt;div&gt;&lt;br&gt;&lt;/div&gt;" style="shape=cylinder3;whiteSpace=wrap;html=1;boundedLbl=1;backgroundOutline=1;size=15;" vertex="1" parent="1">
          <mxGeometry x="3561" y="1395" width="209.5" height="130" as="geometry" />
        </mxCell>
      </root>
    </mxGraphModel>
  </diagram>
</mxfile>
